<?xml version="1.0" encoding="utf-8"?>
<!-- Generator: Adobe Illustrator 27.5.0, SVG Export Plug-In . SVG Version: 6.00 Build 0)  -->
<svg version="1.1" id="Layer_1" xmlns="http://www.w3.org/2000/svg" xmlns:xlink="http://www.w3.org/1999/xlink" x="0px" y="0px"
	 viewBox="0 0 27 28" style="enable-background:new 0 0 27 28;" xml:space="preserve">
<style type="text/css">
	.st0{fill:none;stroke:#FFFFFF;stroke-width:2;stroke-linecap:round;stroke-linejoin:round;}
</style>
<path class="st0" d="M9.6,17.2c0,1.6,1.3,2.8,2.8,2.8h2.6c1.7,0,3-1.4,3-3c0-1.7-1.4-3-3-3h-2.4c-1.7,0-3-1.4-3-3c0-1.7,1.4-3,3-3
	h2.6c1.6,0,2.8,1.3,2.8,2.8 M13.9,6.2V8 M13.9,20.1v1.8 M25.9,14c0,6.7-5.4,12.1-12.1,12.1C7.2,26.1,1.8,20.7,1.8,14
	c0-6.7,5.4-12.1,12.1-12.1C20.5,1.9,25.9,7.4,25.9,14z"/>
</svg>
