<?xml version="1.0" encoding="utf-8"?>
<!-- Generator: Adobe Illustrator 27.5.0, SVG Export Plug-In . SVG Version: 6.00 Build 0)  -->
<svg version="1.1" id="Layer_1" xmlns="http://www.w3.org/2000/svg" xmlns:xlink="http://www.w3.org/1999/xlink" x="0px" y="0px"
	 viewBox="0 0 25 30" style="enable-background:new 0 0 25 30;" xml:space="preserve">
<style type="text/css">
	.st0{fill:none;stroke:#FFFFFF;stroke-width:2.2;stroke-linecap:round;stroke-linejoin:round;}
</style>
<path class="st0" d="M8.4,14.4l2.7,2.7l6.2-6.2 M23.5,15.1c0,6.7-7.3,11.6-10,13.2c-0.3,0.2-0.5,0.3-0.7,0.3c-0.2,0-0.4,0-0.6,0
	c-0.2,0-0.4-0.1-0.7-0.3c-2.7-1.6-10-6.4-10-13.2V8.5c0-1.1,0-1.6,0.2-2.1C1.9,6,2.2,5.6,2.5,5.3C2.9,5,3.4,4.8,4.4,4.4l7.3-2.8
	c0.3-0.1,0.4-0.2,0.6-0.2c0.1,0,0.3,0,0.4,0c0.1,0,0.3,0.1,0.6,0.2l7.3,2.8c1,0.4,1.5,0.6,1.9,0.9c0.3,0.3,0.6,0.7,0.7,1.1
	c0.2,0.5,0.2,1,0.2,2.1V15.1z"/>
</svg>
