<?xml version="1.0" encoding="utf-8"?>
<!-- Generator: Adobe Illustrator 27.5.0, SVG Export Plug-In . SVG Version: 6.00 Build 0)  -->
<svg version="1.1" id="Layer_1" xmlns="http://www.w3.org/2000/svg" xmlns:xlink="http://www.w3.org/1999/xlink" x="0px" y="0px"
	 viewBox="0 0 25 25" style="enable-background:new 0 0 25 25;" xml:space="preserve">
<style type="text/css">
	.st0{fill:none;stroke:#FFFFFF;stroke-width:2.3;stroke-linecap:round;stroke-linejoin:round;}
</style>
<path class="st0" d="M14.8,23.8H6.7 M6.7,23.8c-1.9,0-2.8,0-3.5-0.4C2.5,23.2,2,22.6,1.7,22c-0.4-0.7-0.4-1.7-0.4-3.5 M6.7,23.8h0.4
	c1.9,0,2.8,0,3.5-0.4c0.6-0.3,1.1-0.8,1.5-1.5c0.4-0.7,0.4-1.7,0.4-3.5V18c0-1.9,0-2.8-0.4-3.5c-0.3-0.6-0.8-1.1-1.5-1.5
	C10,12.6,9,12.6,7.1,12.6H6.7c-1.9,0-2.8,0-3.5,0.4c-0.6,0.3-1.1,0.8-1.5,1.5c-0.4,0.7-0.4,1.7-0.4,3.5v0.4 M1.3,18.5v-8.1
	 M10.3,1.4h4.5 M23.7,10.4v4.5 M19.2,23.8c1,0,1.6,0,2-0.1c1.2-0.3,2.1-1.2,2.4-2.4c0.1-0.4,0.1-0.9,0.1-2 M23.7,5.9
	c0-1,0-1.6-0.1-2c-0.3-1.2-1.2-2.1-2.4-2.4c-0.4-0.1-0.9-0.1-2-0.1 M5.8,1.4c-1,0-1.6,0-2,0.1C2.6,1.8,1.7,2.7,1.4,3.9
	c-0.1,0.4-0.1,0.9-0.1,2"/>
</svg>
