<?xml version="1.0" encoding="utf-8"?>
<!-- Generator: Adobe Illustrator 27.5.0, SVG Export Plug-In . SVG Version: 6.00 Build 0)  -->
<svg version="1.1" id="Layer_1" xmlns="http://www.w3.org/2000/svg" xmlns:xlink="http://www.w3.org/1999/xlink" x="0px" y="0px"
	 viewBox="0 0 18 20" style="enable-background:new 0 0 18 20;" xml:space="preserve">
<style type="text/css">
	.st0{fill-rule:evenodd;clip-rule:evenodd;fill:#906CBA;}
</style>
<path class="st0" d="M7.2,4.5C7.2,4.2,7.1,3.9,7.1,3.6c0-0.4,0-0.9,0-1.3c0-0.2,0-0.7,0-0.7c0.1-0.6,0.6-0.7,0.7-0.7
	c0.1,0,0.8-0.1,0.9,0.7c0.2,1,0.3,2,0.2,2.9c0.2,0.8,0.4,1.6,0.8,2.4c1.4,2.9,4.1,3.2,7,3.2c0.4,0,0.8,0.3,0.8,0.8
	c0,0.4-0.3,0.8-0.8,0.9c-1.6,0.2-4.5,1.5-5.5,2.8c-0.2,0.3-0.3,1-0.5,1.6C10.5,17,10.3,18,10,18.4c0,0.1-0.6,0.7-0.8,0.8
	c-0.4,0.2-0.7,0.1-0.9,0C8.2,19,8,18.8,7.9,18.4c-0.1-0.4,0-1.2,0-1.4c0-0.6-0.2-1.8-0.4-2.9c-0.1-0.6-0.3-1.1-0.5-1.3
	c-0.9-1-2.3-0.8-3.5-0.7c-0.1,0-0.3,0-0.4,0.1c-0.5,0.1-1,0.3-1.6,0.3c-0.8,0.1-1-0.7-1-0.7c0-0.1-0.1-0.7,0.6-0.9
	c0.1,0,0.6-0.1,0.8-0.2c0.3-0.1,0.5-0.1,0.8-0.2C5.4,9.7,6.9,7.2,7.2,4.5z M8.2,7.5c1.1,2.2,2.7,3.3,4.6,3.8h0
	c-1.2,0.6-2.3,1.4-2.9,2.2c-0.2,0.3-0.4,0.9-0.6,1.6c-0.1-0.6-0.2-1.3-0.4-1.9c-0.2-0.6-0.5-1.2-0.8-1.5c-0.6-0.6-1.3-1-2.1-1.1
	C7,9.7,7.7,8.7,8.2,7.5z"/>
</svg>
