<?xml version="1.0" encoding="utf-8"?>
<!-- Generator: Adobe Illustrator 27.5.0, SVG Export Plug-In . SVG Version: 6.00 Build 0)  -->
<svg version="1.1" id="Layer_1" xmlns="http://www.w3.org/2000/svg" xmlns:xlink="http://www.w3.org/1999/xlink" x="0px" y="0px"
	 viewBox="0 0 27 27" style="enable-background:new 0 0 27 27;" xml:space="preserve">
<style type="text/css">
	.st0{fill:none;stroke:#FFFFFF;stroke-width:2.2;stroke-linecap:round;stroke-linejoin:round;}
</style>
<path class="st0" d="M12.3,2.5H8.1c-2.2,0-3.4,0-4.2,0.4c-0.8,0.4-1.4,1-1.8,1.8c-0.4,0.9-0.4,2-0.4,4.2v7c0,1.2,0,1.9,0.1,2.4
	c0.4,1.4,1.5,2.5,2.8,2.8c0.5,0.1,1.1,0.1,2.4,0.1v3.1c0,0.7,0,1.1,0.1,1.3c0.1,0.2,0.3,0.3,0.5,0.3c0.2,0,0.5-0.2,1.1-0.7l3.2-2.6
	c0.7-0.5,1-0.8,1.3-1c0.3-0.2,0.7-0.3,1-0.4c0.4-0.1,0.8-0.1,1.7-0.1h2c2.2,0,3.4,0,4.2-0.4c0.8-0.4,1.4-1,1.8-1.8
	c0.4-0.9,0.4-2,0.4-4.2v-0.3 M24.5,2.3c1.6,1.6,1.6,4.1,0,5.7c-1.6,1.6-4.1,1.6-5.7,0c-1.6-1.6-1.6-4.1,0-5.7
	C20.4,0.8,23,0.8,24.5,2.3z"/>
</svg>
