<?xml version="1.0" encoding="utf-8"?>
<!-- Generator: Adobe Illustrator 27.5.0, SVG Export Plug-In . SVG Version: 6.00 Build 0)  -->
<svg version="1.1" id="Layer_1" xmlns="http://www.w3.org/2000/svg" xmlns:xlink="http://www.w3.org/1999/xlink" x="0px" y="0px"
	 viewBox="0 0 28 25" style="enable-background:new 0 0 28 25;" xml:space="preserve">
<style type="text/css">
	.st0{fill:none;stroke:#FFFFFF;stroke-width:2.3;stroke-linecap:round;stroke-linejoin:round;}
</style>
<path class="st0" d="M19.2,2.6c1.8,0.9,3.1,2.8,3.1,5c0,2.2-1.3,4.1-3.1,5 M21.7,19.2c1.9,0.9,3.6,2.2,5,4 M1.8,23.2
	c2.4-3.1,5.7-5,9.4-5c3.6,0,6.9,1.9,9.4,5 M16.7,7.6c0,3.1-2.5,5.6-5.6,5.6c-3.1,0-5.6-2.5-5.6-5.6C5.5,4.5,8,2,11.1,2
	C14.2,2,16.7,4.5,16.7,7.6z"/>
</svg>
